<svg id="icons_Download_Line" data-name="icons/Download/Line" xmlns="http://www.w3.org/2000/svg" width="24" height="24" viewBox="0 0 24 24">
  <path id="Shape" d="M19,6H3A3,3,0,0,1,3,0H19a3,3,0,0,1,0,6ZM3,2A1,1,0,1,0,3,4H19a1,1,0,1,0,0-2Z" transform="translate(1 15)" fill="#fff"/>
  <path id="Shape-2" data-name="Shape" d="M4,0A1,1,0,0,0,3,1V6.586L1.707,5.293A1,1,0,0,0,.293,6.707l3,3a1,1,0,0,0,1.414,0l3-3A1,1,0,0,0,6.293,5.293L5,6.586V1A1,1,0,0,0,4,0Z" transform="translate(8 3)" fill="#fff"/>
</svg>
