<?xml version="1.0" encoding="UTF-8"?>
<svg width="23px" height="23px" viewBox="0 0 23 23" version="1.1" xmlns="http://www.w3.org/2000/svg" xmlns:xlink="http://www.w3.org/1999/xlink">
    <title>Habit_icon@2x</title>
    <g id="Habit_icon" stroke="none" stroke-width="1" fill="none" fill-rule="evenodd">
        <rect fill="#FFFFFF" x="0" y="0" width="23" height="23"></rect>
        <path d="M10.0036323,5.37599158 C11.285131,6.10015415 11.7369412,7.72606384 11.0127786,9.00756251 C11.0046546,9.02193893 10.9963972,9.03623953 10.9880075,9.05046247 L6.47483074,16.7015207 C5.70883118,18.0000976 4.04400868,18.4460965 2.73141909,17.7043648 C1.44992042,16.9802022 0.998110239,15.3542925 1.72227281,14.0727938 C1.73039678,14.0584174 1.73865419,14.0441168 1.74704396,14.0298939 L6.26022068,6.37883565 C7.02622024,5.0802587 8.69104273,4.63425983 10.0036323,5.37599158 Z" id="Rectangle" fill="#FBBD18" fill-rule="nonzero"></path>
        <path d="M19.8066412,5.37599158 C21.1019079,6.05163106 21.6042151,7.64936624 20.9285756,8.94463298 C20.8927536,9.01330732 20.8539324,9.08037512 20.8122245,9.14564249 L16.0445959,16.6063407 C15.1643994,17.98373 13.3776997,18.4603459 11.9284102,17.7043648 C10.6331435,17.0287253 10.1308363,15.4309901 10.8064758,14.1357234 C10.8422979,14.067049 10.881119,13.9999812 10.9228269,13.9347138 L15.6904555,6.47401567 C16.570652,5.0966263 18.3573517,4.62001046 19.8066412,5.37599158 Z" id="Rectangle" fill="#FBBD18" fill-rule="nonzero"></path>
    </g>
</svg>